<svg preserveAspectRatio="none" width="100%" height="100%" overflow="visible" style="display: block;" viewBox="0 0 429.578 826.66" fill="none" xmlns="http://www.w3.org/2000/svg">
<g id="flow">
<line id="Line 3" x1="8.66025" y1="92" x2="8.66025" y2="8" stroke="var(--stroke-0, #808080)" stroke-width="3"/>
<path id="Line 8" d="M8.66025 16C13.0785 16 16.6603 12.4183 16.6603 8C16.6603 3.58172 13.0785 0 8.66025 0C4.24198 0 0.660254 3.58172 0.660254 8C0.660254 12.4183 4.24198 16 8.66025 16ZM8.66025 92H10.1603L10.1603 8H8.66025H7.16025L7.16025 92H8.66025Z" fill="var(--stroke-0, #808080)"/>
<line id="Line 9" x1="394.973" y1="299.007" x2="394.973" y2="284.993" stroke="var(--stroke-0, #808080)" stroke-width="3"/>
<line id="Line 10" x1="394.973" y1="455.007" x2="394.973" y2="440.993" stroke="var(--stroke-0, #808080)" stroke-width="3"/>
<line id="Line 11" x1="394.973" y1="611.007" x2="394.973" y2="596.993" stroke="var(--stroke-0, #808080)" stroke-width="3"/>
<path id="Line 7" d="M396.55 144.449L405.21 129.449L387.89 129.449L396.55 144.449ZM58.5502 289L57.0502 289L57.0502 290.5L58.5502 290.5L58.5502 289ZM216.66 289L216.66 290.5L218.16 290.5L218.16 289L216.66 289ZM216.66 109L216.66 107.5L215.16 107.5L215.16 109L216.66 109ZM396.55 109L398.05 109L398.05 107.5L396.55 107.5L396.55 109ZM58.5502 289L60.0502 289L60.0502 235.449L58.5502 235.449L57.0502 235.449L57.0502 289L58.5502 289ZM216.66 289L216.66 287.5L58.5502 287.5L58.5502 289L58.5502 290.5L216.66 290.5L216.66 289ZM216.66 109L215.16 109L215.16 289L216.66 289L218.16 289L218.16 109L216.66 109ZM396.55 130.949L398.05 130.949L398.05 109L396.55 109L395.05 109L395.05 130.949L396.55 130.949ZM396.55 109L396.55 107.5L216.66 107.5L216.66 109L216.66 110.5L396.55 110.5L396.55 109Z" fill="var(--stroke-0, #808080)"/>
<path id="Line 6" d="M8.66025 826.66L17.3205 818L8.66025 809.34L0 818L8.66025 826.66ZM8.66025 818H10.1603L10.1603 734H8.66025H7.16025L7.16025 818H8.66025Z" fill="var(--stroke-0, #808080)"/>
<line id="Line 4" x1="8.66025" y1="342" x2="8.66025" y2="234" stroke="var(--stroke-0, #808080)" stroke-width="3" stroke-dasharray="6 6"/>
<line id="Line 5" x1="8.66025" y1="592" x2="8.66025" y2="484" stroke="var(--stroke-0, #808080)" stroke-width="3" stroke-dasharray="6 6"/>
<path id="Line 12" d="M11.6603 538L26.6603 546.66L26.6603 529.34L11.6603 538ZM218.91 538H220.41V536.5H218.91V538ZM218.91 685.5H217.41V687H218.91V685.5ZM218.91 538V536.5H25.1603V538V539.5H218.91V538ZM255.66 685.5V684H218.91V685.5V687H255.66V685.5ZM218.91 685.5H220.41V538H218.91H217.41V685.5H218.91Z" fill="var(--stroke-0, #808080)"/>
</g>
</svg>
